<svg width="36" height="36" viewBox="0 0 36 36" fill="none" xmlns="http://www.w3.org/2000/svg">
<mask id="path-1-outside-1_61_61" maskUnits="userSpaceOnUse" x="16" y="11" width="20" height="25" fill="black">
<rect fill="white" x="16" y="11" width="20" height="25"/>
<path d="M26.3188 33.36C24.9188 33.36 23.6188 33.17 22.4188 32.79C21.2188 32.39 20.1188 31.77 19.1188 30.93L20.9488 28.02C21.7288 28.7 22.5688 29.2 23.4688 29.52C24.3888 29.84 25.3688 30 26.4088 30C27.5688 30 28.4488 29.79 29.0488 29.37C29.6488 28.93 29.9488 28.3 29.9488 27.48C29.9488 26.84 29.7788 26.36 29.4388 26.04C29.1188 25.7 28.5588 25.43 27.7588 25.23L24.6088 24.45C22.9888 24.05 21.7888 23.42 21.0088 22.56C20.2488 21.68 19.8688 20.51 19.8688 19.05C19.8688 17.21 20.4788 15.77 21.6988 14.73C22.9188 13.67 24.6288 13.14 26.8288 13.14C29.2088 13.14 31.3188 13.79 33.1588 15.09L31.4488 18.06C30.1688 17.02 28.6288 16.5 26.8288 16.5C25.7288 16.5 24.8988 16.71 24.3388 17.13C23.7788 17.53 23.4988 18.11 23.4988 18.87C23.4988 19.43 23.6588 19.88 23.9788 20.22C24.3188 20.54 24.8888 20.8 25.6888 21L28.8388 21.78C30.4588 22.18 31.6488 22.82 32.4088 23.7C33.1888 24.56 33.5788 25.76 33.5788 27.3C33.5788 29.18 32.9388 30.66 31.6588 31.74C30.3988 32.82 28.6188 33.36 26.3188 33.36Z"/>
</mask>
<path d="M26.3188 33.36C24.9188 33.36 23.6188 33.17 22.4188 32.79C21.2188 32.39 20.1188 31.77 19.1188 30.93L20.9488 28.02C21.7288 28.7 22.5688 29.2 23.4688 29.52C24.3888 29.84 25.3688 30 26.4088 30C27.5688 30 28.4488 29.79 29.0488 29.37C29.6488 28.93 29.9488 28.3 29.9488 27.48C29.9488 26.84 29.7788 26.36 29.4388 26.04C29.1188 25.7 28.5588 25.43 27.7588 25.23L24.6088 24.45C22.9888 24.05 21.7888 23.42 21.0088 22.56C20.2488 21.68 19.8688 20.51 19.8688 19.05C19.8688 17.21 20.4788 15.77 21.6988 14.73C22.9188 13.67 24.6288 13.14 26.8288 13.14C29.2088 13.14 31.3188 13.79 33.1588 15.09L31.4488 18.06C30.1688 17.02 28.6288 16.5 26.8288 16.5C25.7288 16.5 24.8988 16.71 24.3388 17.13C23.7788 17.53 23.4988 18.11 23.4988 18.87C23.4988 19.43 23.6588 19.88 23.9788 20.22C24.3188 20.54 24.8888 20.8 25.6888 21L28.8388 21.78C30.4588 22.18 31.6488 22.82 32.4088 23.7C33.1888 24.56 33.5788 25.76 33.5788 27.3C33.5788 29.18 32.9388 30.66 31.6588 31.74C30.3988 32.82 28.6188 33.36 26.3188 33.36Z" fill="#FCC800"/>
<path d="M22.4188 32.79L21.7864 34.6874L21.8007 34.6921L21.815 34.6967L22.4188 32.79ZM19.1188 30.93L17.4258 29.8653L16.4981 31.3405L17.8324 32.4614L19.1188 30.93ZM20.9488 28.02L22.2631 26.5125L20.5006 24.9759L19.2558 26.9553L20.9488 28.02ZM23.4688 29.52L22.7988 31.4045L22.8118 31.409L23.4688 29.52ZM29.0488 29.37L30.1958 31.0085L30.2138 30.9958L30.2316 30.9828L29.0488 29.37ZM29.4388 26.04L27.9824 27.4107L28.024 27.4549L28.0681 27.4964L29.4388 26.04ZM27.7588 25.23L28.2439 23.2897L28.2395 23.2886L27.7588 25.23ZM24.6088 24.45L25.0895 22.5086L25.0883 22.5083L24.6088 24.45ZM21.0088 22.56L19.4952 23.8672L19.5111 23.8856L19.5274 23.9036L21.0088 22.56ZM21.6988 14.73L22.9963 16.252L23.0035 16.2459L23.0106 16.2397L21.6988 14.73ZM33.1588 15.09L34.8921 16.0879L35.8015 14.5083L34.3129 13.4566L33.1588 15.09ZM31.4488 18.06L30.1876 19.6122L32.0103 21.0931L33.1821 19.0579L31.4488 18.06ZM24.3388 17.13L25.5013 18.7575L25.5202 18.744L25.5388 18.73L24.3388 17.13ZM23.9788 20.22L22.5224 21.5907L22.564 21.6349L22.6081 21.6764L23.9788 20.22ZM25.6888 21L25.2038 22.9403L25.2081 22.9414L25.6888 21ZM28.8388 21.78L28.3581 23.7214L28.3594 23.7217L28.8388 21.78ZM32.4088 23.7L30.8952 25.0072L30.9111 25.0256L30.9274 25.0436L32.4088 23.7ZM31.6588 31.74L30.3691 30.2114L30.3631 30.2164L30.3572 30.2215L31.6588 31.74ZM26.3188 33.36V31.36C25.1009 31.36 24.0068 31.195 23.0226 30.8833L22.4188 32.79L21.815 34.6967C23.2309 35.145 24.7367 35.36 26.3188 35.36V33.36ZM22.4188 32.79L23.0513 30.8926C22.0982 30.5749 21.2186 30.0819 20.4052 29.3986L19.1188 30.93L17.8324 32.4614C19.019 33.4581 20.3395 34.2051 21.7864 34.6874L22.4188 32.79ZM19.1188 30.93L20.8119 31.9947L22.6419 29.0847L20.9488 28.02L19.2558 26.9553L17.4258 29.8653L19.1188 30.93ZM20.9488 28.02L19.6346 29.5275C20.5879 30.3587 21.6433 30.9936 22.7988 31.4044L23.4688 29.52L24.1388 27.6356C23.4944 27.4064 22.8698 27.0413 22.2631 26.5125L20.9488 28.02ZM23.4688 29.52L22.8118 31.409C23.9569 31.8073 25.1604 32 26.4088 32V30V28C25.5773 28 24.8207 27.8727 24.1259 27.631L23.4688 29.52ZM26.4088 30V32C27.7581 32 29.1152 31.7648 30.1958 31.0085L29.0488 29.37L27.9019 27.7315C27.7824 27.8152 27.3796 28 26.4088 28V30ZM29.0488 29.37L30.2316 30.9828C31.4032 30.1236 31.9488 28.8618 31.9488 27.48H29.9488H27.9488C27.9488 27.6442 27.9197 27.7043 27.9181 27.7076C27.9164 27.7112 27.9152 27.7132 27.912 27.717C27.9084 27.7212 27.8958 27.7354 27.8661 27.7572L29.0488 29.37ZM29.9488 27.48H31.9488C31.9488 26.4997 31.6826 25.4053 30.8096 24.5836L29.4388 26.04L28.0681 27.4964C28.0305 27.4611 27.9994 27.4225 27.9755 27.3851C27.952 27.3483 27.9405 27.3202 27.9361 27.3077C27.9285 27.2862 27.9488 27.3316 27.9488 27.48H29.9488ZM29.4388 26.04L30.8952 24.6693C30.1798 23.9091 29.167 23.5205 28.2439 23.2897L27.7588 25.23L27.2738 27.1703C27.5815 27.2472 27.7853 27.3238 27.9102 27.384C28.0385 27.4459 28.0358 27.4674 27.9824 27.4107L29.4388 26.04ZM27.7588 25.23L28.2395 23.2886L25.0895 22.5086L24.6088 24.45L24.1281 26.3914L27.2781 27.1714L27.7588 25.23ZM24.6088 24.45L25.0883 22.5083C23.6932 22.1638 22.91 21.6791 22.4903 21.2164L21.0088 22.56L19.5274 23.9036C20.6677 25.1609 22.2845 25.9362 24.1294 26.3917L24.6088 24.45ZM21.0088 22.56L22.5225 21.2528C22.1501 20.8216 21.8688 20.1567 21.8688 19.05H19.8688H17.8688C17.8688 20.8633 18.3475 22.5384 19.4952 23.8672L21.0088 22.56ZM19.8688 19.05H21.8688C21.8688 17.6993 22.2906 16.8536 22.9963 16.252L21.6988 14.73L20.4014 13.208C18.6671 14.6864 17.8688 16.7207 17.8688 19.05H19.8688ZM21.6988 14.73L23.0106 16.2397C23.7534 15.5943 24.9359 15.14 26.8288 15.14V13.14V11.14C24.3217 11.14 22.0843 11.7457 20.3871 13.2203L21.6988 14.73ZM26.8288 13.14V15.14C28.8202 15.14 30.522 15.6758 32.0048 16.7234L33.1588 15.09L34.3129 13.4566C32.1157 11.9042 29.5974 11.14 26.8288 11.14V13.14ZM33.1588 15.09L31.4256 14.0921L29.7156 17.0621L31.4488 18.06L33.1821 19.0579L34.8921 16.0879L33.1588 15.09ZM31.4488 18.06L32.71 16.5078C31.0402 15.151 29.0433 14.5 26.8288 14.5V16.5V18.5C28.2144 18.5 29.2975 18.889 30.1876 19.6122L31.4488 18.06ZM26.8288 16.5V14.5C25.5268 14.5 24.1927 14.7396 23.1388 15.53L24.3388 17.13L25.5388 18.73C25.6049 18.6804 25.9309 18.5 26.8288 18.5V16.5ZM24.3388 17.13L23.1764 15.5025C22.03 16.3213 21.4988 17.5425 21.4988 18.87H23.4988H25.4988C25.4988 18.8026 25.505 18.762 25.509 18.7428C25.5128 18.7246 25.515 18.7241 25.5099 18.7345C25.5046 18.7455 25.4971 18.7569 25.4898 18.7653C25.483 18.7733 25.484 18.7698 25.5013 18.7575L24.3388 17.13ZM23.4988 18.87H21.4988C21.4988 19.8317 21.7858 20.8081 22.5224 21.5907L23.9788 20.22L25.4352 18.8493C25.4499 18.8648 25.4649 18.8841 25.4781 18.9059C25.4912 18.9275 25.4991 18.9458 25.5033 18.9575C25.5117 18.9811 25.4988 18.9602 25.4988 18.87H23.4988ZM23.9788 20.22L22.6081 21.6764C23.3217 22.348 24.2912 22.7122 25.2038 22.9403L25.6888 21L26.1739 19.0597C25.8576 18.9806 25.6369 18.9017 25.4913 18.8354C25.3417 18.7671 25.3164 18.7324 25.3496 18.7636L23.9788 20.22ZM25.6888 21L25.2081 22.9414L28.3581 23.7214L28.8388 21.78L29.3195 19.8386L26.1695 19.0586L25.6888 21ZM28.8388 21.78L28.3594 23.7217C29.7453 24.0639 30.5005 24.5502 30.8952 25.0072L32.4088 23.7L33.9225 22.3928C32.7972 21.0898 31.1723 20.2961 29.3183 19.8383L28.8388 21.78ZM32.4088 23.7L30.9274 25.0436C31.2771 25.4292 31.5788 26.0913 31.5788 27.3H33.5788H35.5788C35.5788 25.4287 35.1005 23.6908 33.8903 22.3564L32.4088 23.7ZM33.5788 27.3H31.5788C31.5788 28.6719 31.1402 29.5608 30.3691 30.2114L31.6588 31.74L32.9486 33.2686C34.7375 31.7592 35.5788 29.6881 35.5788 27.3H33.5788ZM31.6588 31.74L30.3572 30.2215C29.5783 30.8892 28.325 31.36 26.3188 31.36V33.36V35.36C28.9127 35.36 31.2194 34.7508 32.9604 33.2585L31.6588 31.74Z" fill="black" mask="url(#path-1-outside-1_61_61)"/>
<mask id="path-3-outside-2_61_61" maskUnits="userSpaceOnUse" x="0" y="0" width="23" height="24" fill="black">
<rect fill="white" width="23" height="24"/>
<path d="M5.85883 22L2.82883 2.5H6.15883L8.07883 15.4L10.2088 4.75H12.9688L15.0988 15.4L17.0188 2.5H20.1688L17.1388 22H13.8988L11.5588 10.51L9.21883 22H5.85883Z"/>
</mask>
<path d="M5.85883 22L2.82883 2.5H6.15883L8.07883 15.4L10.2088 4.75H12.9688L15.0988 15.4L17.0188 2.5H20.1688L17.1388 22H13.8988L11.5588 10.51L9.21883 22H5.85883Z" fill="#FCC800"/>
<path d="M5.85883 22L3.88254 22.3071L4.1456 24H5.85883V22ZM2.82883 2.5V0.499999H0.494059L0.852544 2.80708L2.82883 2.5ZM6.15883 2.5L8.13704 2.20557L7.88318 0.499999H6.15883V2.5ZM8.07883 15.4L6.10062 15.6944L10.04 15.7922L8.07883 15.4ZM10.2088 4.75V2.75H8.56922L8.24767 4.35777L10.2088 4.75ZM12.9688 4.75L14.93 4.35777L14.6084 2.75H12.9688V4.75ZM15.0988 15.4L13.1377 15.7922L17.077 15.6944L15.0988 15.4ZM17.0188 2.5V0.499999H15.2945L15.0406 2.20557L17.0188 2.5ZM20.1688 2.5L22.1451 2.80708L22.5036 0.499999H20.1688V2.5ZM17.1388 22V24H18.8521L19.1151 22.3071L17.1388 22ZM13.8988 22L11.9391 22.3991L12.2651 24H13.8988V22ZM11.5588 10.51L13.5186 10.1109L9.59906 10.1109L11.5588 10.51ZM9.21883 22V24H10.8526L11.1786 22.3991L9.21883 22ZM5.85883 22L7.83511 21.6929L4.80511 2.19291L2.82883 2.5L0.852544 2.80708L3.88254 22.3071L5.85883 22ZM2.82883 2.5V4.5H6.15883V2.5V0.499999H2.82883V2.5ZM6.15883 2.5L4.18062 2.79443L6.10062 15.6944L8.07883 15.4L10.057 15.1056L8.13704 2.20557L6.15883 2.5ZM8.07883 15.4L10.04 15.7922L12.17 5.14223L10.2088 4.75L8.24767 4.35777L6.11767 15.0078L8.07883 15.4ZM10.2088 4.75V6.75H12.9688V4.75V2.75H10.2088V4.75ZM12.9688 4.75L11.0077 5.14223L13.1377 15.7922L15.0988 15.4L17.06 15.0078L14.93 4.35777L12.9688 4.75ZM15.0988 15.4L17.077 15.6944L18.997 2.79443L17.0188 2.5L15.0406 2.20557L13.1206 15.1056L15.0988 15.4ZM17.0188 2.5V4.5H20.1688V2.5V0.499999H17.0188V2.5ZM20.1688 2.5L18.1925 2.19291L15.1625 21.6929L17.1388 22L19.1151 22.3071L22.1451 2.80708L20.1688 2.5ZM17.1388 22V20H13.8988V22V24H17.1388V22ZM13.8988 22L15.8586 21.6009L13.5186 10.1109L11.5588 10.51L9.59906 10.9091L11.9391 22.3991L13.8988 22ZM11.5588 10.51L9.59906 10.1109L7.25906 21.6009L9.21883 22L11.1786 22.3991L13.5186 10.9091L11.5588 10.51ZM9.21883 22V20H5.85883V22V24H9.21883V22Z" fill="black" mask="url(#path-3-outside-2_61_61)"/>
</svg>
